<svg width="22" height="23" viewBox="0 0 22 23" fill="none" xmlns="http://www.w3.org/2000/svg">
<path fill-rule="evenodd" clip-rule="evenodd" d="M1.99988 11.6929C1.99988 11.1406 2.44759 10.6929 2.99988 10.6929H16.1699L13.2934 7.80836C12.9047 7.41857 12.9051 6.78761 13.2944 6.39836V6.39836C13.684 6.00873 14.3157 6.00873 14.7054 6.39836L19.9999 11.6929L14.7054 16.9874C14.3157 17.377 13.684 17.377 13.2944 16.9874V16.9874C12.9051 16.5981 12.9047 15.9672 13.2934 15.5774L16.1699 12.6929H2.99988C2.44759 12.6929 1.99988 12.2452 1.99988 11.6929V11.6929Z" fill="black" fill-opacity="0.7"/>
<mask id="mask0_194_8812" style="mask-type:alpha" maskUnits="userSpaceOnUse" x="1" y="6" width="19" height="12">
<path fill-rule="evenodd" clip-rule="evenodd" d="M1.99988 11.6929C1.99988 11.1406 2.44759 10.6929 2.99988 10.6929H16.1699L13.2934 7.80836C12.9047 7.41857 12.9051 6.78761 13.2944 6.39836V6.39836C13.684 6.00873 14.3157 6.00873 14.7054 6.39836L19.9999 11.6929L14.7054 16.9874C14.3157 17.377 13.684 17.377 13.2944 16.9874V16.9874C12.9051 16.5981 12.9047 15.9672 13.2934 15.5774L16.1699 12.6929H2.99988C2.44759 12.6929 1.99988 12.2452 1.99988 11.6929V11.6929Z" fill="white"/>
</mask>
<g mask="url(#mask0_194_8812)">
<rect x="-0.00012207" y="0.692871" width="22" height="22" fill="#BE42C9"/>
</g>
</svg>
